<?xml version="1.0" encoding="UTF-8" standalone="no"?>
<!-- Created with Inkscape (http://www.inkscape.org/) -->

<svg
   xmlns:dc="http://purl.org/dc/elements/1.1/"
   xmlns:cc="http://creativecommons.org/ns#"
   xmlns:rdf="http://www.w3.org/1999/02/22-rdf-syntax-ns#"
   xmlns:svg="http://www.w3.org/2000/svg"
   xmlns="http://www.w3.org/2000/svg"
   xmlns:sodipodi="http://sodipodi.sourceforge.net/DTD/sodipodi-0.dtd"
   xmlns:inkscape="http://www.inkscape.org/namespaces/inkscape"
   width="919.9577"
   height="264.69974"
   id="svg20286"
   version="1.1"
   inkscape:version="0.48.4 r9939"
   inkscape:export-filename="/home/collin/.code/my-projects/www/blog-rekahsoft-ca/_site/images/header-logo.png"
   inkscape:export-xdpi="90"
   inkscape:export-ydpi="90"
   sodipodi:docname="logo-banner.svg">
  <defs
     id="defs20288" />
  <sodipodi:namedview
     id="base"
     pagecolor="#ffffff"
     bordercolor="#666666"
     borderopacity="1.0"
     inkscape:pageopacity="0"
     inkscape:pageshadow="2"
     inkscape:zoom="1"
     inkscape:cx="578.31523"
     inkscape:cy="132.33671"
     inkscape:document-units="px"
     inkscape:current-layer="layer1"
     showgrid="false"
     fit-margin-top="0"
     fit-margin-left="0"
     fit-margin-right="0"
     fit-margin-bottom="0"
     inkscape:window-width="1920"
     inkscape:window-height="1200"
     inkscape:window-x="0"
     inkscape:window-y="0"
     inkscape:window-maximized="0" />
  <metadata
     id="metadata20291">
    <rdf:RDF>
      <cc:Work
         rdf:about="">
        <dc:format>image/svg+xml</dc:format>
        <dc:type
           rdf:resource="http://purl.org/dc/dcmitype/StillImage" />
        <dc:title></dc:title>
      </cc:Work>
    </rdf:RDF>
  </metadata>
  <g
     inkscape:label="Layer 1"
     inkscape:groupmode="layer"
     id="layer1"
     transform="translate(97.121696,-257.14202)">
    <g
       transform="translate(-47.915314,151.84549)"
       id="g20264"
       style="fill:#ffffff;display:inline"
       inkscape:export-filename="/home/collin/.code/my-projects/www/blog-rekahsoft-ca/_site/images/header-logo.png"
       inkscape:export-xdpi="90"
       inkscape:export-ydpi="90">
      <g
         style="fill:#ffffff;fill-opacity:1;stroke:#000000;stroke-width:0;stroke-miterlimit:4;stroke-opacity:1;stroke-dasharray:none"
         transform="matrix(0.48228414,0,0,0.48228414,154.07021,-48.669476)"
         id="g6020">
        <path
           style="fill:#ffffff;fill-opacity:1;stroke:#000000;stroke-width:0;stroke-miterlimit:4;stroke-opacity:1;stroke-dasharray:none"
           id="path5986"
           d="m 237.96667,400.12574 c -1.86356,2.5207 -4.25816,4.72464 -5.5907,7.56209 -1.40804,2.99823 -1.41055,6.48773 -2.47975,9.62283 -1.50643,4.41715 -7.48031,16.25384 -8.46151,20.32761 -1.0204,4.23651 -0.56183,8.71312 -1.29444,13.00876 -1.15068,6.74696 -2.89778,13.37853 -4.34667,20.0678 -2.13044,24.70969 -2.19157,33.27318 -7.39927,58.44172 -7.97184,38.52758 -13.19591,44.01565 -15.75872,82.50556 -0.97036,14.57334 1.26695,35.77839 2.58217,51.04277 0.78658,13.42328 -1.17249,26.59297 -3.90461,39.67546 -0.78246,3.74676 -2.30361,7.37351 -2.56782,11.19197 -0.17041,2.46267 -0.83325,6.03143 1.28879,7.29267 1.71472,1.01915 3.1039,-2.50631 4.65585,-3.75947 -69.24898,-8.61906 -46.88643,9.4154 -43.82113,-11.90768 0.28189,-1.96089 -0.0415,-3.96188 -0.0622,-5.94282 0.4088,-10.82641 42.93895,-9.22049 42.53015,1.60592 l 0,0 c -0.28494,2.65337 -0.96515,5.29377 -0.85482,7.96012 1.09281,26.40912 19.8119,8.63702 -47.26262,13.80371 8.9896,-11.9873 2.47931,-1.22236 7.18908,-17.44619 0.9112,-3.13881 2.68253,-5.97694 3.6684,-9.09311 1.33037,-4.20508 2.30999,-8.51649 3.26503,-12.82235 4.54927,-20.51085 -0.37524,-7.27021 8.35864,-26.10394 3.88432,-5.874 8.50785,-11.32119 11.65294,-17.622 10.5358,-21.10711 16.84692,-43.90477 18.10873,-67.59077 0.77368,-14.52302 -2.01086,-29.02406 -2.48793,-43.55985 -1.61897,-49.32879 3.40468,-11.4057 -4.84077,-58.05188 -2.25533,-14.8187 -4.8572,-25.57951 -3.7749,-40.4355 0.88569,-12.15723 3.52762,-14.57376 6.74554,-25.6377 0.89286,-3.06988 1.4829,-6.22099 2.12335,-9.35327 0.6338,-3.09977 1.13235,-6.22567 1.69852,-9.33851 3.70536,-10.44726 44.74608,4.10879 41.04071,14.55605 z"
           inkscape:connector-curvature="0" />
        <path
           style="fill:#ffffff;fill-opacity:1;stroke:#000000;stroke-width:0;stroke-miterlimit:4;stroke-opacity:1;stroke-dasharray:none"
           id="path5988"
           d="m 234.8287,406.5455 c 0.50173,8.74238 0.38611,14.83186 3.46503,23.63373 1.47857,4.22687 4.19827,7.91232 6.18903,11.92348 1.84182,3.71105 3.78527,7.38558 5.3067,11.23908 1.63756,4.14763 2.68558,8.50577 4.15162,12.71708 1.59962,4.595 3.36252,9.13152 5.04377,13.69728 1.82612,5.5514 4.08046,10.97982 5.47834,16.65421 8.15678,33.11052 2.29999,24.16786 13.40128,58.79651 7.69465,24.00219 12.14896,29.42859 23.0297,51.29363 3.66151,7.35786 7.13207,14.80921 10.69811,22.21381 3.06286,8.18908 6.47073,16.25728 9.18858,24.56724 12.58533,38.48019 2.55261,16.62693 17.20941,54.19311 3.05867,7.83952 6.70746,15.43582 10.07625,23.14717 2.70007,6.18064 5.76695,12.21168 8.13032,18.52873 2.41051,6.44307 4.11313,13.12923 6.1697,19.69385 2.58386,3.85305 4.368,8.38524 7.75157,11.55916 8.90124,8.34974 43.61375,-19.2533 -20.92901,-13.50868 -3.45092,0.30714 -16.76586,14.94495 -16.87535,23.78884 -0.0187,1.51282 0.66529,2.95182 0.99793,4.42774 -0.0897,-1.2957 -0.17933,-2.59141 -0.269,-3.88711 -3.13932,-12.16312 44.64194,-24.49553 47.78126,-12.33241 l 0,0 c -0.0357,-0.63542 -0.0714,-1.27084 -0.10708,-1.90626 0.39657,2.09031 1.15951,4.14355 1.18971,6.27092 0.14547,10.24597 -8.29232,29.76167 -15.93961,31.37627 -37.5587,7.92986 -28.36652,-10.18674 -28.61301,-23.45783 -0.0893,-4.81007 -0.68738,-9.59721 -1.03106,-14.39581 -18.86208,-73.32931 8.18713,33.3615 -9.20699,-40.39873 -1.87969,-7.97092 -4.1408,-15.84787 -6.34628,-23.73486 -2.46426,-8.8124 -4.71986,-17.69587 -7.66212,-26.36039 -6.80954,-20.05304 -12.23239,-30.634 -20.94777,-49.61417 -10.17606,-28.18989 -7.32213,-19.7547 -17.10782,-49.10094 -6.41728,-19.24472 -11.87306,-39.37675 -22.26154,-57.06942 -4.73568,-8.06536 -12.10711,-14.34352 -17.05473,-22.28065 -2.94423,-4.72324 -4.29166,-10.27091 -6.4375,-15.40636 -14.60444,-27.67144 -1.36109,-1.4552 -12.77787,-27.07308 -1.76134,-3.95223 -4.2271,-7.59791 -5.66885,-11.6776 -1.57758,-4.464 -1.69439,-9.36564 -3.33706,-13.80609 -3.012,-8.14204 -9.72529,-17.74565 -14.32785,-24.93427 -2.2343,-10.60037 39.40788,-19.37755 41.64219,-8.77718 z"
           inkscape:connector-curvature="0" />
        <path
           style="fill:#ffffff;fill-opacity:1;stroke:#000000;stroke-width:0;stroke-miterlimit:4;stroke-opacity:1;stroke-dasharray:none"
           id="path5990"
           d="m 397.0312,470.05102 c 0.97053,5.47026 1.40148,11.06426 2.91158,16.41077 3.01101,10.66044 11.31446,28.73048 16.25001,38.25752 3.46973,6.69759 7.57212,13.05129 11.13564,19.69945 3.62973,6.77168 6.91798,13.72115 10.43877,20.55011 3.64157,7.06324 7.36529,14.08383 11.04793,21.12574 8.72112,16.26576 9.55737,35.84509 18.16197,52.09954 8.78284,16.59116 20.61264,25.43298 34.37759,36.82836 12.22958,10.12432 8.44156,7.36275 20.23705,14.11602 -0.14433,6.92124 7.6066,9.93782 9.2724,15.81831 1.20685,4.26033 5.22684,12.61985 0.84496,13.25698 -16.18833,2.3538 -32.44613,-4.20218 -48.66919,-6.30328 -2.51435,-11.99935 44.62355,-21.87666 47.1379,-9.87731 l 0,0 c -39.26365,0.37467 -53.81255,-15.14406 -45.54721,11.83836 0.28228,0.92151 2.3586,-2.93717 2.05095,-2.03798 -0.49651,-2.89279 -0.76601,-5.83385 -1.48955,-8.67835 -3.29445,-12.95184 -7.06786,-21.75959 -13.68793,-34.07225 -4.6709,-8.6874 -9.5629,-17.28917 -15.14709,-25.41967 -6.43704,-9.37222 -14.91053,-17.29979 -20.85168,-26.99394 -4.03568,-6.58501 -5.88137,-14.28306 -8.82206,-21.4246 -16.67489,-40.94874 1.20867,-0.38857 -20.18622,-39.36528 -3.63967,-6.63068 -5.71811,-14.09372 -9.76995,-20.48087 -4.13492,-6.51811 -10.15573,-11.66167 -14.61666,-17.96114 -27.23674,-38.46221 4.6855,-0.0838 -22.40865,-31.37029 -4.07705,-9.50252 33.25238,-25.51872 37.32944,-16.0162 z"
           inkscape:connector-curvature="0" />
        <path
           style="fill:#ffffff;fill-opacity:1;stroke:#000000;stroke-width:0;stroke-miterlimit:4;stroke-opacity:1;stroke-dasharray:none"
           id="path5992"
           d="m 466.17676,664.36872 c -7.98458,3.77537 -7.49057,2.18283 -12.29009,9.70992 -0.23661,0.37107 0.84541,-0.27203 1.22207,-0.49964 0.86173,-0.52074 2.16736,-2.69279 2.47354,-1.73362 0.423,1.32511 -1.27318,2.47562 -1.82975,3.7504 -1.21804,2.78984 -2.32794,5.62566 -3.49191,8.43849 -7.37478,5.2471 -12.92238,8.45091 -18.65217,15.88293 -2.93028,3.80083 -5.03818,8.17618 -7.31657,12.40012 -2.04434,3.79001 -4.27233,7.53908 -5.64096,11.62201 -2.25359,6.72293 -0.67474,5.57563 3.35557,5.60874 -6.038,11.50431 -51.23121,-12.2152 -45.1932,-23.71951 l 0,0 c 5.42017,-2.11784 4.66342,-1.63032 10.71121,-5.11545 2.62166,-1.51077 5.734,-2.47375 7.74476,-4.73479 3.2454,-3.64937 5.68395,-8.03302 7.60332,-12.52373 2.07224,-4.84836 2.84022,-10.15561 4.26032,-15.23341 1.15931,-2.56224 2.31861,-5.12448 3.47792,-7.68671 -1.99856,1.03093 -0.3971,0.36824 1.25222,-3.63184 4.14871,-10.06181 1.8572,-10.06224 11.35148,-16.18268 1.69006,-1.08949 4.10222,-0.79856 5.67109,-2.05631 2.31493,-1.85587 3.70803,-4.63284 5.56205,-6.94925 8.31244,-7.5678 38.04153,25.08654 29.7291,32.65433 z"
           inkscape:connector-curvature="0" />
        <path
           style="fill:#ffffff;fill-opacity:1;stroke:#000000;stroke-width:0;stroke-miterlimit:4;stroke-opacity:1;stroke-dasharray:none"
           id="path6000"
           d="m 210.36805,837.79477 c -16.37518,-4.13823 2.54209,0.32605 -18.07354,-3.24552 -4.67524,-0.80996 -9.28852,-2.28116 -13.97872,-2.90341 -3.79101,-0.50294 -7.61187,-0.50894 -11.4201,-0.4662 -10.97672,0.12317 -16.11932,1.02471 -26.95181,2.31967 -19.07043,4.86923 -7.26907,3.18787 -27.05639,2.74631 -4.65973,-0.10398 -9.34515,0.64784 -13.981007,-0.013 C 92.203358,835.277 85.712,832.11418 78.99248,831.41353 c -15.052104,-1.5695 -18.37323,0.84412 -31.843635,5.29014 -5.188799,-2.08834 -8.73395,5.29645 -13.40012,5.8476 -22.131774,2.6141 8.703698,-5.39703 -12.577061,-0.32896 -2.476665,0.58983 -5.772058,5.09634 -7.341095,2.37713 -4.887283,-8.46992 -5.8109095,-20.13702 -8.7163675,-30.20552 11.9065195,9.78235 2.7129824,-7.53614 5.2416095,-9.35768 0.22544,-0.1624 0.303752,0.98078 0.05507,1.05319 -0.303877,0.0885 -0.7562763,-0.4487 -0.6889279,-0.86861 0.6371219,-3.97219 3.1236369,-9.19397 4.5266919,-12.52417 1.38819,-2.63386 4.695511,-9.07738 6.261554,-11.32072 3.570567,-5.11476 7.730669,-9.44188 11.070881,-14.84703 3.997441,-6.46868 7.741777,-13.30731 10.861583,-20.64421 5.997298,-14.10396 6.722569,-21.00564 9.552276,-35.57548 2.835425,-3.49237 -0.136508,-9.76745 1.528008,-13.81592 1.89476,-4.60846 6.944519,-8.53082 9.130255,-12.35646 3.511607,-6.14626 6.875039,-12.535 9.543273,-19.44715 3.282499,-8.50343 5.485031,-17.72583 8.227547,-26.58875 2.257392,-15.90779 4.954662,-31.69133 7.227143,-47.59493 0.933742,-6.53465 1.11624,-13.32368 2.615336,-19.65315 1.818921,-7.67984 5.007484,-14.60764 7.26442,-22.0611 4.505219,-14.87835 11.534189,-41.71101 15.511689,-56.60101 1.50729,-20.88296 10.99541,-38.38699 14.22544,-58.45745 3.39977,-21.12515 1.50727,-30.05962 -2.79658,-49.06342 -0.97207,-4.29217 -2.14505,-8.51117 -3.54485,-12.57023 -0.96423,-2.79602 -2.34641,-5.27659 -3.51961,-7.91489 -2.38877,-10.74639 -2.171,-6.91099 -2.10339,-18.45105 0.0145,-2.47511 0.0286,-4.96117 0.24808,-7.41762 0.34966,-3.91312 -1.19021,-10.20385 1.45623,-11.65567 21.07311,-11.56058 20.39255,-8.93574 27.479,4.35533 3.1223,1.12333 5.80695,3.98903 8.92927,5.05054 2.54979,0.86688 5.22394,0.73843 7.83223,1.15386 2.63597,0.41984 5.25695,1.02795 7.89996,1.35183 3.40059,0.41671 6.81608,0.5542 10.22238,0.86892 3.55159,0.32814 7.10066,0.70644 10.65099,1.05965 15.3524,1.46641 30.30441,8.89953 45.83408,5.66725 3.33167,-0.69343 6.22339,-4.127 9.58471,-4.4433 3.0819,-0.29001 9.42423,-1.56072 9.06145,2.6887 -1.04933,12.29123 -8.07897,22.07944 -12.11846,33.11915 -7.03106,1.23416 -10.53096,-37.02728 -3.4999,-38.26144 l 0,0 c -2.30529,11.31784 -7.16042,22.19865 -6.91589,33.95351 0.0732,3.51741 6.77953,2.79898 7.61128,-0.52591 0.83162,-3.32435 -3.39362,-5.60423 -5.74545,-6.93265 -11.41845,-6.44968 -17.00548,-3.42529 -28.99566,-1.98162 -4.45427,0.53631 -8.91338,0.99238 -13.37007,1.48858 -4.64946,0.25633 -9.30168,0.42987 -13.94837,0.769 -3.78775,0.27644 -17.32602,1.95429 -21.2844,1.43932 -2.86978,-0.37334 -5.55913,-2.16783 -8.39974,-2.84539 -17.85799,-4.25963 -1.50236,2.57457 -20.04295,-6.5888 -1.5298,-0.72557 -6.10806,-1.40752 -4.5894,-2.17673 6.13158,-3.10568 13.42514,-1.06216 19.21808,-5.23278 1.77224,-1.27591 0.36201,-5.75105 -0.45391,-8.27642 -0.4128,-1.27768 -0.81524,2.60661 -0.92854,3.99758 -1.10807,13.60466 2.69506,-6.43758 -1.29937,11.60396 -0.005,3.62034 0.19189,7.25192 -0.0142,10.86098 -0.91544,16.0347 -2.41223,20.79573 -5.18048,37.58426 -1.5559,9.436 -3.16633,18.85692 -4.56824,28.33913 -1.61402,10.91687 -2.16707,22.17614 -4.47832,32.84977 -1.98755,9.17872 -5.55721,17.55154 -8.33581,26.32731 -1.83878,10.02239 -3.85307,19.98611 -5.51633,30.06718 -2.04104,12.37081 -5.32224,38.87305 -7.9282,52.02565 -2.8829,14.55032 -6.727425,25.65849 -10.714817,39.75979 -2.310251,8.17014 -4.504665,16.40223 -6.756998,24.60334 -1.402192,9.51803 -3.417519,18.90157 -4.206576,28.55408 -3.118883,38.15316 2.575118,15.38939 -2.741921,40.4174 -0.459119,2.16113 -0.780236,4.49517 -1.739819,6.31397 -2.00491,3.80012 -6.233828,5.8212 -9.056366,7.63721 -2.82023,3.43358 -6.066553,6.29412 -8.46069,10.30073 -6.361445,10.64593 -13.204747,28.4811 -15.819218,41.61545 -1.404445,7.05551 -1.086005,14.56861 -1.936164,21.79207 -0.665175,5.65171 -1.463168,7.48654 -2.984539,12.14716 -0.419107,0.67721 -0.963605,1.23783 -1.257322,2.03164 -0.194542,0.52579 -0.03279,1.19125 -0.145946,1.7609 -0.466041,2.34618 -0.942103,4.69776 -1.586637,6.96143 -2.62216,9.20929 -1.774045,6.11463 -5.721892,12.79395 -0.275572,0.46623 0.613857,-0.85398 0.920783,-1.28097 -3.462489,-8.54336 -6.137641,-17.7983 -10.387472,-25.6301 -0.568125,-1.04697 -2.897289,2.19948 -2.035112,2.73716 1.833216,1.14326 4.021467,-0.40479 6.028647,-0.24665 2.178688,0.17164 4.318182,0.88445 6.485869,1.23256 12.699405,2.0394 4.562616,-0.30387 17.054111,4.33567 13.39129,5.0662 15.751054,7.34415 31.073389,6.11484 6.027502,-0.48359 11.857085,-3.32087 17.867217,-4.1178 4.465503,-0.59212 8.977953,0.28928 13.457723,-0.0358 36.76111,-2.66761 -9.68126,-1.73977 26.37428,-2.00482 4.54834,-0.73194 9.08507,-1.61896 13.64502,-2.1958 4.57522,-0.57878 9.17373,-0.74376 13.75225,-1.27002 11.50019,-1.32185 23.31669,-2.55992 34.42948,-7.23326 1.79867,-0.7564 3.48948,-1.93789 5.23422,-2.90684 6.90781,-2.07302 12.78661,35.51767 5.8788,37.59069 z"
           inkscape:connector-curvature="0" />
        <path
           style="fill:#ffffff;fill-opacity:1;stroke:#000000;stroke-width:0;stroke-miterlimit:4;stroke-opacity:1;stroke-dasharray:none"
           id="path6000-6"
           d="m 512.30468,326.96776 c 16.37518,4.13823 -2.54209,-0.32605 18.07354,3.24552 4.67524,0.80996 9.28852,2.28116 13.97872,2.90341 3.79101,0.50294 7.61187,0.50894 11.4201,0.4662 10.97672,-0.12317 16.11932,-1.02471 26.95181,-2.31967 19.07043,-4.86923 7.26907,-3.18787 27.05639,-2.74631 4.65973,0.10398 9.34515,-0.64784 13.98101,0.013 6.70313,0.95562 13.19448,4.11844 19.91401,4.81909 15.0521,1.5695 18.37323,-0.84412 31.84363,-5.29014 5.1888,2.08834 8.73395,-5.29645 13.40012,-5.8476 22.13178,-2.6141 -8.7037,5.39703 12.57706,0.32896 2.47667,-0.58983 5.77206,-5.09634 7.3411,-2.37713 4.88728,8.46992 5.81091,20.13702 8.71637,30.20552 -11.90652,-9.78235 -2.71299,7.53614 -5.24161,9.35768 -0.22544,0.1624 -0.30376,-0.98078 -0.0551,-1.05319 0.30387,-0.0885 0.75627,0.4487 0.68892,0.86861 -0.63712,3.97219 -3.12363,9.19397 -4.52669,12.52417 -1.38819,2.63386 -4.69551,9.07738 -6.26155,11.32072 -3.57057,5.11476 -7.73067,9.44188 -11.07088,14.84703 -3.99745,6.46868 -7.74178,13.30731 -10.86159,20.64421 -5.9973,14.10396 -6.72257,21.00564 -9.55227,35.57548 -2.83543,3.49237 0.1365,9.76745 -1.52801,13.81592 -1.89476,4.60846 -6.94452,8.53082 -9.13026,12.35646 -3.5116,6.14626 -6.87504,12.535 -9.54327,19.44715 -3.2825,8.50343 -5.48503,17.72583 -8.22755,26.58875 -2.25739,15.90779 -4.95466,31.69133 -7.22714,47.59493 -0.93374,6.53465 -1.11624,13.32368 -2.61534,19.65315 -1.81892,7.67984 -5.00748,14.60764 -7.26442,22.0611 -4.50521,14.87835 -11.53419,41.71101 -15.51169,56.60101 -1.50729,20.88296 -10.99541,38.38699 -14.22544,58.45745 -3.39977,21.12514 -1.50727,30.05961 2.79658,49.06341 0.97207,4.29217 2.14505,8.51117 3.54485,12.57023 0.96423,2.79602 2.34641,5.27659 3.51961,7.91489 2.38877,10.74639 2.171,6.91099 2.10339,18.45105 -0.0145,2.47511 -0.0286,4.96117 -0.24808,7.41762 -0.34966,3.91312 1.19021,10.20387 -1.45623,11.65567 -21.07311,11.5606 -20.39255,8.9357 -27.479,-4.35533 -3.1223,-1.12333 -5.80695,-3.98903 -8.92927,-5.05054 -2.54979,-0.86688 -5.22394,-0.73843 -7.83223,-1.15386 -2.63597,-0.41984 -5.25695,-1.02795 -7.89996,-1.35183 -3.40059,-0.41671 -6.81608,-0.5542 -10.22238,-0.86892 -3.55159,-0.32814 -7.10066,-0.70644 -10.65099,-1.05965 -15.3524,-1.46641 -30.30441,-8.89953 -45.83407,-5.66725 -3.33167,0.69343 -6.22339,4.127 -9.58471,4.4433 -3.0819,0.29001 -9.42423,1.56072 -9.06145,-2.6887 1.04933,-12.29123 8.07897,-22.07944 12.11846,-33.11915 7.03106,-1.23416 10.53095,37.02728 3.4999,38.26144 l 0,0 c 2.30529,-11.31784 7.16041,-22.19865 6.91588,-33.95351 -0.0732,-3.51741 -6.77952,-2.79898 -7.61127,0.52591 -0.83162,3.32435 3.39362,5.60423 5.74545,6.93265 11.41844,6.44968 17.00547,3.42529 28.99565,1.98162 4.45427,-0.53631 8.91338,-0.99238 13.37007,-1.48858 4.64946,-0.25633 9.30168,-0.42987 13.94837,-0.769 3.78775,-0.27644 17.32602,-1.95429 21.2844,-1.43932 2.86978,0.37334 5.55913,2.16783 8.39974,2.84539 17.85799,4.25963 1.50236,-2.57457 20.04295,6.5888 1.5298,0.72557 6.10806,1.40752 4.5894,2.17673 -6.13158,3.10568 -13.42514,1.06216 -19.21808,5.23278 -1.77224,1.27591 -0.36201,5.75105 0.45391,8.27642 0.4128,1.27768 0.81524,-2.60661 0.92854,-3.99758 1.10807,-13.60466 -2.69506,6.43758 1.29937,-11.60396 0.005,-3.62034 -0.19189,-7.25192 0.0142,-10.86098 0.91544,-16.0347 2.41223,-20.79573 5.18048,-37.58426 1.5559,-9.436 3.16633,-18.85691 4.56824,-28.33912 1.61402,-10.91687 2.16707,-22.17614 4.47832,-32.84977 1.98755,-9.17872 5.55721,-17.55154 8.33581,-26.32731 1.83878,-10.02239 3.85307,-19.98611 5.51633,-30.06718 2.04104,-12.37081 5.32224,-38.87305 7.92821,-52.02565 2.8829,-14.55032 6.72742,-25.65849 10.71481,-39.75979 2.31025,-8.17014 4.50467,-16.40223 6.757,-24.60334 1.40219,-9.51803 3.41752,-18.90157 4.20658,-28.55408 3.11888,-38.15316 -2.57512,-15.38939 2.74192,-40.4174 0.45912,-2.16113 0.78023,-4.49517 1.73982,-6.31397 2.00491,-3.80012 6.23382,-5.8212 9.05636,-7.63721 2.82023,-3.43358 6.06655,-6.29412 8.46069,-10.30073 6.36145,-10.64593 13.20475,-28.4811 15.81922,-41.61545 1.40444,-7.05551 1.086,-14.56861 1.93616,-21.79207 0.66518,-5.65171 1.46317,-7.48654 2.98454,-12.14716 0.41911,-0.67721 0.96361,-1.23783 1.25732,-2.03164 0.19455,-0.52579 0.0328,-1.19125 0.14595,-1.7609 0.46604,-2.34618 0.9421,-4.69776 1.58664,-6.96143 2.62216,-9.20929 1.77404,-6.11463 5.72189,-12.79395 0.27557,-0.46623 -0.61386,0.85398 -0.92078,1.28097 3.46249,8.54336 6.13764,17.7983 10.38747,25.6301 0.56813,1.04697 2.89729,-2.19948 2.03511,-2.73716 -1.83321,-1.14326 -4.02146,0.40479 -6.02864,0.24665 -2.17869,-0.17164 -4.31819,-0.88445 -6.48587,-1.23256 -12.69941,-2.0394 -4.56262,0.30387 -17.05412,-4.33567 -13.39129,-5.0662 -15.75105,-7.34415 -31.07338,-6.11484 -6.02751,0.48359 -11.85709,3.32087 -17.86722,4.1178 -4.4655,0.59212 -8.97796,-0.28928 -13.45773,0.0358 -36.76111,2.66761 9.68126,1.73977 -26.37428,2.00482 -4.54834,0.73194 -9.08507,1.61896 -13.64502,2.1958 -4.57522,0.57878 -9.17373,0.74376 -13.75225,1.27002 -11.50019,1.32185 -23.31669,2.55992 -34.42948,7.23326 -1.79867,0.7564 -3.48948,1.93789 -5.23422,2.90684 -6.90781,2.07302 -12.78661,-35.51767 -5.8788,-37.59069 z"
           inkscape:connector-curvature="0" />
      </g>
      <g
         transform="translate(334.3605,-483.86307)"
         style="fill:#ffffff;fill-opacity:1;fill-rule:nonzero"
         id="g7218">
        <path
           style="fill:#ffffff;fill-opacity:1;fill-rule:nonzero"
           id="path6067"
           d="m 245.74265,625.08219 c -1.39689,-0.83668 -2.63709,-2.0225 -4.19069,-2.51004 -1.22907,-0.38569 -2.57928,0.0699 -3.86446,-0.0177 -1.08741,-0.0742 -2.14678,-0.49403 -3.23636,-0.46647 -0.76075,0.0193 -1.44549,0.51816 -2.20163,0.60398 -1.21675,0.1381 -2.44878,0.0419 -3.67317,0.0628 -1.22811,0.14452 -2.45622,0.28905 -3.68433,0.43356 -4.98037,1.03935 -9.99082,1.93254 -15.00091,2.81539 -1.96946,0.34704 -3.9328,0.73403 -5.91197,1.02048 -3.04376,0.44054 -6.19248,0.32776 -9.15322,1.15996 -2.97109,0.83511 -5.63236,2.52502 -8.44853,3.78753 3.04416,-6.27754 -7.71134,9.10871 -4.71291,8.16655 1.64127,-0.51571 2.65263,-2.4214 3.19343,-4.05458 0.34345,-1.03724 -1.39147,-4.0967 -0.79811,-3.17923 0.20551,0.31777 5.3852,12.26941 5.4931,12.51756 4.39069,7.82318 1.65847,4.91174 8.14401,9.75825 1.17037,0.8746 2.27399,1.85202 3.53033,2.59789 1.0215,0.60644 2.27906,0.76806 3.2623,1.43475 2.36205,1.60157 4.99184,5.05873 6.72343,7.10519 2.38121,3.81355 8.85269,14.32593 10.60994,16.06716 3.49787,3.46598 19.84611,13.7802 24.67142,16.1358 3.39788,1.65875 7.12592,2.53673 10.63943,3.93395 2.75837,1.09695 5.44607,2.36383 8.1691,3.54575 7.23782,4.88259 6.03225,3.44118 11.90956,9.89756 1.75674,1.92984 3.24274,4.09996 5.0499,5.98265 1.4617,1.52278 3.15051,2.81002 4.73194,4.20806 1.22417,1.08219 2.60984,2.00211 3.68481,3.23264 1.45591,1.66659 2.57242,3.60157 3.85864,5.40235 3.05204,6.40595 3.58197,5.58087 3.49732,12.53807 -0.0215,1.76486 -0.48729,3.49806 -0.63148,5.25715 -0.54217,6.61409 0.0982,-1.44794 0.73924,3.11556 0.15824,1.12643 -0.04,2.27463 -0.06,3.41196 -1.88154,3.85753 -4.17346,9.93366 -8.04081,12.32937 -2.76936,1.71548 -5.99251,2.55743 -9.00217,3.80414 -14.94883,6.19229 -6.23025,2.03947 -20.61109,9.56385 -5.88826,2.59283 -10.55486,7.08558 -15.99692,10.36492 -3.52442,2.12381 -10.1998,5.19379 -14.19662,6.30002 -7.36157,2.03744 -9.31961,1.45053 -17.09514,1.3918 -9.6128,-1.93999 -10.32241,-3.3433 -19.60231,-0.70406 -1.61809,0.46016 -2.91909,3.18769 -4.42211,2.4321 -14.30533,-7.19164 -7.08061,-11.87498 1.57338,-16.15165 1.10101,-0.56333 2.20202,-1.12661 3.30303,-1.68994 4.33841,-0.5147 6.36027,16.52822 2.02185,17.04286 l 0,0 c 0.45646,-0.63025 0.91291,-1.2605 1.36937,-1.89075 -4.14986,3.76869 1.92715,-1.4408 0.98296,-3.38615 -1.5523,-3.19839 -5.5792,-4.43119 -8.10188,-6.93617 -1.16533,-1.1572 2.44363,2.36124 4.00558,2.86856 7.84209,2.54709 11.53922,0.89686 19.65496,-0.34585 2.06293,-0.0437 4.13851,0.10065 6.18879,-0.13173 0.80076,-0.0907 12.90166,-2.64319 13.40327,-2.7966 2.40374,-0.73502 4.6576,-1.89407 7.01332,-2.77092 13.27238,-4.94029 3.48729,-0.55102 17.45951,-7.48135 4.83191,-2.92273 13.88203,-7.94076 17.96579,-12.14748 1.61606,-1.6647 2.28817,-4.04205 3.58237,-5.96765 0.41966,-0.62442 1.15628,-1.00342 1.5384,-1.65151 0.15934,-0.27023 0.92382,-2.42777 1.24966,-3.34157 0.16567,-0.49059 0.44826,-0.95623 0.49703,-1.47174 0.31825,-3.36452 -0.55935,-4.3492 0.85572,-7.51623 0.79985,-1.79013 2.9455,-1.5004 2.84573,-4.0866 -0.0502,-1.30114 -1.10922,-2.35617 -1.66384,-3.53424 -0.92576,-1.22949 -1.88157,-2.43689 -2.7773,-3.68845 -1.07543,-1.50265 -2.05079,-3.07558 -3.13473,-4.57213 -2.31537,-3.19669 -5.82784,-7.7655 -8.5515,-10.59897 -1.63104,-1.69682 -3.53438,-3.11618 -5.17372,-4.80494 -1.59993,-1.64817 -3.0205,-3.46142 -4.53074,-5.19214 -4.16981,-3.85992 -10.34846,-9.75539 -14.74468,-12.95809 -4.60683,-3.35611 -20.71308,-13.19965 -25.39258,-15.3967 -4.54293,-2.13292 -9.61784,-3.00471 -14.12574,-5.21068 -1.94944,-0.95397 -3.34197,-2.76997 -5.01296,-4.15496 -0.92506,-0.97127 -1.76446,-2.03202 -2.77518,-2.9138 -3.85611,-3.36419 -2.46221,-0.64848 -6.24272,-5.26805 -1.11722,-1.36519 -1.90746,-2.96903 -2.91598,-4.41639 -4.21601,-6.05049 -3.73401,-5.17537 -8.75167,-10.98259 -1.44134,-1.63733 -2.69087,-3.46589 -4.324,-4.91197 -3.30129,-2.92315 -6.42711,0.22608 -7.47382,-7.39498 -1.04136,-7.58214 3.06478,-7.70948 7.54991,-9.74877 2.18113,-0.99171 4.33451,-2.04337 6.50176,-3.06507 28.02347,-11.23687 -8.9273,4.16509 17.72909,-8.83259 1.85667,-0.90531 3.93842,-1.24752 5.90345,-1.88426 1.78885,-0.57965 3.54056,-1.2826 5.35808,-1.76488 16.92208,-4.49024 -7.56239,2.90689 9.85554,-2.49511 2.94251,-0.87412 5.69025,-1.98168 8.81925,-1.90971 1.82928,0.0421 3.61705,0.60046 5.44382,0.70504 1.60015,0.0916 3.21079,-0.26451 4.80687,-0.11822 10.36658,0.95014 -1.51845,1.20169 7.581,0.77145 3.75399,0.69733 1.01461,15.44438 -2.73937,14.74705 z"
           inkscape:connector-curvature="0" />
        <path
           style="fill:#ffffff;fill-opacity:1;fill-rule:nonzero"
           id="path6071"
           d="m 316.28663,631.6518 c -0.39365,3.65855 -0.80578,5.54995 -0.32849,9.28224 0.12903,1.00895 1.61948,6.31906 1.91743,7.4586 1.09179,4.17574 0.89596,3.52285 1.84886,8.00088 0.2728,1.82126 0.91402,3.62468 0.8184,5.46376 -0.82415,15.8522 -3.13353,3.32469 -1.09908,19.63056 1.0463,8.38596 1.9974,7.57599 3.68583,15.11122 0.41647,1.85866 0.57981,3.76511 0.86971,5.64769 0.56863,4.89546 0.94676,9.77432 0.0694,14.67188 -0.64539,3.60253 -2.10467,7.0637 -2.41761,10.71021 -0.84911,9.89432 0.55072,11.19453 3.61015,19.79441 3.45823,5.87166 2.83962,3.8066 4.32998,9.616 0.34124,1.33015 0.77314,2.65106 0.91378,4.01707 0.16088,1.56252 0.0717,3.1439 -0.015,4.71227 -0.17245,3.11895 -0.94956,8.46629 -1.3495,11.4728 0.50343,1.60567 0.8817,3.25608 1.51031,4.81705 0.35943,0.89243 0.83878,1.74983 1.43759,2.50289 0.39541,0.49728 2.12532,1.11405 1.49384,1.18367 -5.81516,0.64102 -11.69108,0.6127 -17.54141,0.58549 -0.22524,0 -0.0174,-0.48164 0.11128,-0.6665 2.48585,-3.57102 5.12886,-7.03005 7.69329,-10.54511 7.78982,5.51525 7.31415,3.2312 9.38992,7.08268 0.0139,0.0259 -0.0396,-0.0449 -0.0508,-0.072 -6.2e-4,-0.006 -0.4346,-1.14316 -0.42633,-1.16415 0.0489,-0.12436 0.24029,0.11702 0.36044,0.1755 1.61354,1.13504 1.88812,3.37636 3.28837,4.66376 0.53616,0.49303 0.0135,-1.70083 -0.59389,-2.10275 -2.32081,-1.53561 -4.88404,-3.0176 -7.64698,-3.34996 -1.51841,-0.18264 -2.82677,1.1849 -4.16265,1.92947 -0.16117,0.0898 0.36454,0.0572 0.54681,0.0857 1.41738,-1.99835 3.7729,-3.07712 5.30169,-4.95032 0.40886,-0.50097 1.05481,-2.3341 0.65483,-1.82598 -1.04325,1.32513 -3.40412,2.83143 -2.62328,4.32635 5.82124,11.14439 6.50636,10.03933 12.88085,8.49111 -3.64999,2.71269 -14.30631,-11.62585 -10.65632,-14.33854 l 0,0 c 6.72882,-3.78204 7.64279,-5.82556 15.40793,7.58895 1.26746,2.18956 -3.24066,4.88427 -4.89897,5.91176 -0.72341,0.44828 -1.67855,0.63745 -2.18413,1.322 -0.56758,0.76851 -0.54693,1.83084 -0.82039,2.74623 -1.75321,2.88173 -3.29219,6.56103 -7.8078,6.46026 -2.97101,-0.0663 -5.62678,-2.05172 -8.13785,-3.64101 -0.77595,-0.49112 -2.19113,-2.81648 -1.38122,-2.38365 3.46586,1.85221 0.98212,3.37452 2.15822,2.61979 -0.32539,-0.0628 -0.73261,0.0363 -0.97616,-0.18843 -0.49507,-0.45683 -0.68584,-1.16182 -1.07951,-1.7084 -3.18066,-4.41648 0.19938,0.76444 -2.65818,-3.54584 -0.23533,-0.35495 -1.04714,-1.28321 -0.66797,-1.08918 2.93675,1.50237 5.65815,3.39293 8.48722,5.08945 2.43188,-3.53907 4.67481,-7.21572 7.29563,-10.61726 0.16265,-0.21109 0.58337,0.68836 0.32056,0.73238 -5.67904,0.95116 -11.45678,1.21075 -17.148,2.08607 -0.3493,0.0536 0.76186,0.67703 0.98171,0.40032 1.71249,-2.1552 0.12802,-6.11872 1.87662,-8.04209 -1.47386,-8.97032 -0.85898,-4.22379 -1.57958,-11.70688 -0.21496,-2.23225 -0.62168,-5.119 -0.44651,-7.37117 0.1003,-1.2897 0.52653,-2.53708 0.66684,-3.82304 0.235,-2.15384 0.30515,-4.32246 0.45773,-6.48372 0.15036,-8.83012 0.71065,-11.41831 -1.55342,-20.53103 -0.91229,-3.67188 -2.72732,-7.07058 -3.74868,-10.71363 -1.34711,-4.80493 -0.87583,-10.29937 -0.74467,-15.21351 0.90437,-3.94656 1.73132,-6.82837 1.84614,-11.03008 0.0799,-2.92561 -0.0726,-5.86091 -0.37301,-8.77212 -0.3434,-3.32748 -0.63461,-6.69827 -1.55543,-9.91419 -0.84909,-2.96538 -2.70715,-5.56035 -3.7106,-8.47712 -0.49009,-1.42456 -0.49309,-2.97239 -0.73964,-4.45858 -0.9089,-2.55838 -2.04208,-5.42477 -2.55736,-8.11395 -0.2644,-1.37988 -0.31022,-2.79282 -0.47518,-4.18809 -0.55684,-4.70982 -1.14737,-9.42814 -2.49886,-13.99246 -0.34868,-3.67152 14.07441,-5.04127 14.42309,-1.36976 z"
           inkscape:connector-curvature="0" />
        <path
           style="fill:#ffffff;fill-opacity:1;fill-rule:nonzero"
           id="path6073"
           d="m 391.44589,736.28139 c -0.64676,-0.21926 -1.27598,-0.49944 -1.9403,-0.65775 -0.69098,-0.16466 -1.39919,-0.34041 -2.10874,-0.30708 -0.14774,0.007 -0.30489,0.38136 -0.16055,0.41365 1.29504,0.28961 2.63019,0.44219 3.95721,0.43549 0.36124,-0.004 1.07262,-0.8099 0.98108,-0.46044 -0.11085,0.42316 -0.7082,0.51365 -1.06231,0.77048 1.30734,0.46978 -8.57188,1.04292 -6.44888,0.64324 1.69132,-0.31838 3.53798,0.2589 5.15196,-0.33858 1.33188,-0.4931 2.26689,-1.73264 3.23918,-2.76786 0.36683,-0.39059 -0.97195,0.47081 -1.39303,0.8022 -0.53978,0.4248 -0.97747,0.96529 -1.4662,1.4479 -1.42231,3.1026 -4.2577,5.23619 -6.14704,8.00754 -0.91001,1.33481 -1.62916,2.79327 -2.34373,4.24217 -0.53251,1.07973 -0.7171,2.33579 -1.39208,3.33273 -1.60906,2.37651 -3.60209,4.46909 -5.40314,6.70362 -1.28191,2.34843 -7.27433,12.72621 -7.82195,15.89807 -0.29765,1.72404 0.44717,3.50607 1.08482,5.13531 0.23966,0.61227 1.03723,1.85116 1.44897,1.33855 1.74706,-2.17533 -0.12056,-4.42245 -1.04988,-6.10081 4.54222,6.72613 1.57279,0.94482 3.15222,9.45594 0.0662,0.35692 0.46535,-0.68559 0.35205,-1.03045 -0.49939,-1.52003 -0.87563,-3.29141 -2.10743,-4.31238 -1.23382,-1.02263 -7.61341,-1.46007 -2.72575,-1.04442 0.55382,-0.1012 1.10119,-0.24839 1.66146,-0.30374 0.87437,-0.0864 4.66461,-0.067 5.05969,0.0462 0.50443,0.14455 -1.01354,0.28915 -1.53468,0.3504 -0.0745,0.009 0.0581,-0.15833 0.1283,-0.18505 1.58693,-0.6034 3.20304,-1.12715 4.80456,-1.69073 2.0913,-1.44709 5.27177,-3.07873 6.48911,-5.64416 0.24802,-0.52271 -0.19654,-2.30552 -0.12896,-1.73093 0.60756,5.16571 2.8176,10.41527 1.74907,15.50564 -0.3707,1.76596 -3.46693,-1.67319 -4.31875,-3.26389 -1.09268,-2.04058 -0.73364,-4.57093 -1.10046,-6.85633 0.49072,-1.56873 1.21736,-3.08236 1.47215,-4.70621 1.09743,-6.99409 -1.84189,-0.97246 0.99885,-8.30496 0.70192,-1.81176 1.77232,-3.45936 2.59136,-5.22129 2.35002,-5.05531 1.83285,-3.91075 3.10459,-8.84367 0.1336,-1.01889 0.44827,-2.03017 0.4008,-3.05669 -0.0177,-0.38292 -0.44094,-0.63433 -0.58789,-0.98838 -0.12524,-0.30174 -0.13858,-0.63865 -0.21887,-0.95532 -0.21982,-0.86699 -0.55424,-1.70997 -0.68135,-2.59528 -1.19933,-8.35336 1.01297,1.90271 -0.70415,-5.50382 -0.0131,-0.69816 -0.71272,-1.91023 -0.0392,-2.09449 5.36984,-1.46897 11.01196,-3.18403 16.5258,-2.41555 1.66564,0.23213 -0.7035,7.72633 -0.807,8.34751 -0.13934,0.83635 -0.0494,1.6955 -0.10835,2.54133 -0.0473,0.67845 -0.14034,1.35296 -0.21051,2.02945 -0.15297,4.55349 -1.30645,9.02119 -1.47546,13.56984 -0.18129,4.87907 0.80637,-1.2033 -0.57287,5.35989 0.23235,3.29549 -2.56429,6.01013 -1.26189,9.34271 0.23768,0.60815 0.92544,1.53542 1.51108,1.24664 0.62185,-0.30669 0.0688,-1.38687 0.1655,-2.07345 0.0286,-0.20353 0.13886,-0.38686 0.20828,-0.58032 -0.0696,1.38922 -0.0912,2.7817 -0.20872,4.16771 -0.0593,0.69957 -0.30584,1.37968 -0.32129,2.08164 -0.004,0.15402 0.24137,0.52911 0.26721,0.37724 0.0798,-0.46939 0.13836,-1.00718 -0.0889,-1.42548 -1.98347,-3.65055 -4.21626,-3.77477 -1.61594,-3.35715 0.85113,0.58629 1.81545,1.03531 2.55339,1.75888 0.93014,0.91207 1.69142,1.99226 2.39208,3.09048 0.53925,0.84521 1.86783,4.87799 1.88383,5.32048 0.06,1.66026 -0.003,6.41821 -0.73924,4.92896 -1.53451,-3.1031 -1.24975,-6.80979 -1.87462,-10.21478 -0.87256,-0.59141 -3.41291,-2.46614 -2.61768,-1.77421 1.18059,1.02718 2.41033,2.0271 3.77942,2.78508 0.31525,0.17452 -0.73436,-1.22836 -0.48976,-0.96372 0.9913,1.2171 1.9826,2.4342 2.9739,3.65129 0.0168,0.19158 -0.0176,0.39491 0.0504,0.57478 0.29082,0.76901 0.67786,1.49818 1.01679,2.2473 -1.83627,-1.76522 -1.80626,-1.70102 -4.42772,-4.78946 -0.0426,-0.0505 0.13331,-0.0486 0.19546,-0.0277 0.77924,0.27025 1.54561,0.57737 2.30668,0.8952 0.0831,0.0345 0.14249,0.11038 0.21813,0.1592 0.7255,0.46822 1.45658,0.9277 2.18487,1.39162 -2.84357,-2.72211 0.86016,0.81338 2.86401,2.85994 0.4466,0.45609 -0.96284,-0.84122 -1.40248,-1.30402 -0.1297,-0.13654 0.31103,0.21244 0.46654,0.31869 3.18355,2.92581 -8.31021,15.43203 -11.49376,12.50622 l 0,0 c -0.42021,-0.16874 -0.91126,-0.21805 -1.26062,-0.50608 -0.84301,-0.69514 -3.26225,-2.79069 -2.24724,-2.38624 0.78871,0.31426 6.6014,5.08698 1.65458,1.93642 3.12403,2.50197 0.55091,0.61369 0.65051,0.19779 0.0704,-0.29376 3.02185,2.70721 -0.8671,-0.08 -5.69867,-4.08417 -4.71602,-2.5088 -6.18611,-6.56909 1.07302,3.69124 0.0368,0.33876 0.25183,0.53298 0.91485,0.8265 1.8503,1.69228 2.45446,2.76699 0.30006,0.53378 -2.03397,-1.35893 -1.49725,-1.06425 6.78237,3.72418 1.71373,1.3827 -0.56812,0.43776 -0.77265,-3.63209 -0.9359,-7.44971 -2.31792,-10.89631 -0.53186,-1.32637 -0.45864,2.8499 -0.33759,4.27384 0.15176,1.78511 0.8193,2.17835 2.02827,2.9681 0.16934,0.11056 0.36037,0.18375 0.54055,0.27566 -2.20713,-1.40183 -3.67084,-2.25253 -5.63441,-4.88777 -0.74607,-1.00127 -0.92048,-2.33533 -1.16846,-3.55914 -0.19131,-0.9442 0.009,-1.93476 -0.13769,-2.88684 -0.0561,-0.36326 -0.47044,-1.36835 -0.46285,-1.00084 0.0155,0.75208 0.32513,1.46888 0.4877,2.20341 -0.16659,-0.35274 -0.49608,-0.66817 -0.49973,-1.05827 -0.0113,-1.20232 0.70034,-3.92849 1.04229,-5.17649 0.34816,-1.27069 0.93907,-2.49117 1.08607,-3.80047 0.1424,-1.26831 -0.21361,-2.54574 -0.23027,-3.82189 -0.0177,-1.35802 0.0848,-2.71496 0.12719,-4.07245 0.34321,-1.55275 0.55179,-3.13495 0.93831,-4.67752 0.23273,-0.9288 0.66388,-1.80278 0.86765,-2.73838 0.6946,-3.18941 -0.40348,-6.28395 -0.33571,-9.48823 -0.22362,-4.0949 -0.23511,-1.84037 0.0166,-5.40947 0.0248,-0.35199 0.10432,-1.4067 0.0573,-1.057 -0.0892,0.66438 -0.85325,2.04663 -0.18436,2.00255 25.48689,-1.6794 21.5057,-2.24858 15.81453,-3.14397 -0.478,1.37131 -0.71648,1.63369 -0.3978,3.37022 0.54202,2.95361 1.88135,3.68396 1.48451,7.06173 -0.16398,1.39569 -0.95776,2.64362 -1.50236,3.93908 -0.43938,1.04516 -0.96502,2.05187 -1.44752,3.07783 -1.4067,3.06064 -2.67358,5.51489 -3.5651,8.82253 -0.34496,1.27982 -0.35145,2.63024 -0.62736,3.92671 -0.19675,0.92442 -0.66618,1.78642 -0.788,2.72366 -0.33579,2.58353 -0.0494,3.58265 0.31628,5.8952 -0.0981,-1.01389 0.33265,-2.23899 -0.29441,-3.0418 -0.93967,-1.20302 -3.74025,-3.87515 -3.92473,-2.35981 -0.64504,5.29837 2.07465,10.51549 2.28253,15.8489 0.026,0.66552 -1.03952,-1.02559 -1.70536,-1.04116 -2.13767,-0.0499 -5.85527,2.61881 -7.19492,3.4189 -1.80594,2.29248 -4.31016,6.10376 -7.17706,7.45986 -1.65197,0.7815 -3.53018,1.01715 -5.34764,1.20823 -0.21759,0.0228 0.0168,-0.59959 -0.20052,-0.62501 -0.47692,-0.056 -0.91424,0.29401 -1.37137,0.44095 -0.52309,-0.1009 -1.0462,-0.20185 -1.5693,-0.30275 -3.34832,1.12796 -5.29136,2.10836 -9.661,-0.4617 -1.92885,-1.13442 -2.78312,-3.55981 -3.70213,-5.60014 -0.46011,-1.02152 -0.6399,-2.26934 -0.327,-3.34509 0.4966,-1.70742 0.93348,8.12649 2.19445,4.86229 -2.51489,-3.31758 -4.32626,-4.52138 -3.70009,-9.38071 0.26141,-2.02876 5.1243,-7.26041 5.81404,-8.32829 3.97518,-6.15458 4.73964,-9.15891 7.48427,-16.09762 0.22275,-2.93006 -0.13833,-5.96451 0.66822,-8.79013 0.42635,-1.49363 2.10198,-2.31786 2.88535,-3.65913 0.80227,-1.37366 1.2379,-2.93112 1.82674,-4.40892 1.37652,-3.45466 2.78734,-6.92774 3.77736,-10.51604 0.39104,-0.51612 0.91479,-0.95457 1.17312,-1.54831 0.22484,-0.51675 -0.13898,-1.24849 0.22933,-1.675 4.60456,-5.33228 4.16708,-3.23301 10.53364,-5.27878 1.48812,-0.47819 -5.34028,0.69093 -4.54326,1.16064 -0.77661,0.88699 0.41505,-0.53294 1.90875,-0.74322 1.73049,-0.24356 3.51228,-0.32504 5.2421,-0.0767 0.78315,0.11242 1.38147,0.77263 2.08782,1.12903 2.48486,1.25384 1.92791,0.8989 5.12869,1.68887 3.4976,1.74679 -3.36442,15.48666 -6.86202,13.73988 z"
           inkscape:connector-curvature="0" />
        <path
           style="fill:#ffffff;fill-opacity:1;fill-rule:nonzero"
           id="path6111"
           d="m 436.64038,708.44666 c -2.34593,4.09241 -3.91095,6.41921 -5.29605,11.4396 -0.73986,2.68171 -1.13261,5.46781 -1.29092,8.24522 -0.13636,2.39213 0.20427,4.78929 0.41189,7.17629 0.16055,1.8458 0.46913,3.67577 0.692,5.51508 0.18745,1.54705 0.3593,3.09596 0.53896,4.64398 0.36236,7.11644 0.3299,2.78846 -0.14076,10.65346 -0.13297,2.22209 -0.16092,4.45138 -0.36209,6.6683 -0.66302,7.30665 -1.27762,6.78746 -1.19943,14.05187 0.0205,1.90711 0.29592,3.80297 0.44388,5.70442 0.12614,1.78671 -0.24582,3.68121 0.3784,5.36 0.30649,0.82435 1.44775,0.99887 2.17163,1.4983 -3.85353,-0.49063 -7.92194,-0.11142 -11.5606,-1.47176 -0.83624,-0.31267 0.96283,-1.54995 1.13506,-2.42595 0.20074,-1.0209 -0.0376,-2.08065 -0.0444,-3.12107 -0.005,-0.77461 0.006,-1.54928 0.009,-2.32394 0.52982,-2.15785 1.44906,-4.18969 2.08518,-6.31239 0.49958,-1.66704 0.89888,-3.36245 1.3575,-5.0413 0.54752,-2.00419 1.30149,-3.96121 1.66087,-6.00752 0.10652,-0.60654 0.7968,-11.26207 0.84038,-11.91922 0.0393,-1.86543 -0.20452,-3.75852 0.11777,-5.5963 0.46234,-2.63637 1.51551,-5.13464 2.21709,-7.71771 0.69049,-2.54217 1.34323,-5.09494 1.95867,-7.65636 0.515,-2.1434 0.7683,-4.35416 1.43222,-6.45617 1.21391,-3.84339 2.66966,-5.98094 4.62078,-9.34107 1.96909,-1.29073 1.5601,-3.7185 2.59469,-5.44098 0.29801,-0.49619 0.86023,-0.77462 1.29149,-1.1606 2.21905,-1.98622 2.85778,-3.10449 7.16598,-1.80075 1.4561,0.44066 2.22756,2.07258 3.34134,3.10887 -0.74375,-0.86165 -1.43048,-1.77601 -2.23127,-2.58491 -0.17926,-0.18109 0.15417,0.51433 0.34669,0.68123 1.20381,1.04377 2.54104,1.92321 3.79332,2.90832 1.26113,0.99206 2.47611,2.04228 3.7463,3.02268 8.60463,6.64182 -0.69063,-0.81489 5.69631,4.34906 1.56706,1.73374 3.16258,2.94453 3.08521,5.69584 -0.0576,2.04763 -1.04008,3.96368 -1.48552,5.96312 -0.56399,2.53159 -1.20961,5.05435 -1.54203,7.62661 -0.35373,2.73699 -0.28449,5.51305 -0.51156,8.26344 -0.23615,2.86063 -0.58518,5.71085 -0.87778,8.56627 0.47175,7.41644 0.19523,6.03725 1.24437,12.67098 0.24314,1.53736 0.63042,3.05262 0.80919,4.59882 0.16596,1.43532 0.16892,2.88499 0.22307,4.32887 0.16087,4.28998 0.11804,4.04318 0.0491,7.91233 0.38595,0.58722 0.77188,1.17444 1.15783,1.76159 -0.51141,3.07011 -12.57176,1.06111 -12.06035,-2.009 l 0,0 c 0.43512,-0.28656 0.87023,-0.57312 1.30532,-0.85968 0.34746,-0.94248 0.83327,-1.845 1.04236,-2.8275 0.46915,-2.20457 0.32441,-6.06565 0.41495,-8.17487 0.24037,-5.60001 0.25975,-4.75002 1.42216,-10.54658 0.47075,-2.34744 0.96112,-4.69086 1.44168,-7.0363 0.26932,-6.4428 0.67597,-10.21975 -0.0303,-16.63564 -0.26971,-2.45002 -0.62072,-4.91222 -1.32089,-7.27552 -0.4292,-1.44862 -1.45228,-2.65616 -2.03459,-4.05031 -0.20288,-0.48571 2.86999,-0.65159 -0.0146,-1.5791 -0.6172,-0.91604 -2.19189,-3.33087 -2.83054,-3.79334 -1.0637,-0.77031 -2.32763,-1.27868 -3.6018,-1.597 -2.71738,-0.67881 -1.54038,1.51153 -4.665,0.12186 -1.40677,-0.62564 -2.46968,-1.83913 -3.70451,-2.75873 1.03027,0.8852 1.76396,2.36483 3.0908,2.65555 1.63721,0.35873 3.34186,-0.41518 4.94801,-0.89418 0.2268,-0.0676 0.47142,-0.54838 0.26255,-0.65968 -0.22112,-0.11783 -0.3147,0.45174 -0.56037,0.501 -4.62054,0.92587 1.36852,-1.75327 -4.45839,1.36283 -0.83542,1.073 -1.62804,2.18078 -2.50626,3.21907 -1.0475,1.23844 -2.34547,2.27148 -3.26692,3.60637 -2.4121,3.49425 -4.5529,8.44371 -4.86643,12.67886 -0.19619,2.64999 0.8612,5.27567 0.79471,7.93212 -0.045,1.79871 -0.75026,3.51945 -1.12539,5.27917 -1.734,23.04856 0.85238,-12.12878 -0.7347,12.34009 -0.13433,2.07104 -0.50394,4.1284 -0.52971,6.20362 -0.0226,1.8219 0.29292,3.6328 0.38497,5.4525 0.0652,1.28937 0.0761,2.58114 0.0867,3.87211 0.005,0.58167 -0.027,1.16298 -0.0404,1.74447 -0.38003,1.26241 -1.20056,3.58764 -1.06118,4.90927 0.12861,1.21937 2.16405,3.03815 1.04013,3.52835 -28.85458,12.58495 -9.97082,0.75515 -9.41499,-1.23446 0.50653,-1.81305 -0.0497,-3.76468 -0.0746,-5.64705 0.66493,-5.70436 0.84412,-6.71394 1.26402,-12.70852 0.15888,-2.26832 0.43349,-4.53831 0.37426,-6.81144 -0.057,-2.18687 -0.49314,-4.34734 -0.72173,-6.52299 -0.68426,-6.51234 -0.5031,-4.38548 -0.75933,-10.52028 0.38521,-5.63529 0.19294,-4.9017 1.23017,-10.78341 0.97763,-5.54388 2.31946,-9.86146 2.03727,-15.64217 -0.14166,-2.9019 -1.06248,-5.71405 -1.48946,-8.58787 -0.21633,-1.45603 -0.2929,-2.92941 -0.43935,-4.39414 0.53609,-2.82517 11.63442,-0.71919 11.09833,2.10597 z"
           inkscape:connector-curvature="0" />
        <path
           style="fill:#ffffff;fill-opacity:1;fill-rule:nonzero"
           id="path6119"
           d="m 506.58455,734.74652 c 0.81126,0.24357 -2.73021,-1.9694 -2.89909,-0.96501 -0.0793,0.4721 0.59923,1.32498 0.98654,1.04363 2.63873,-1.91678 4.07537,-5.38762 6.99492,-6.8414 1.11911,-0.55728 0.0735,2.68381 -0.66759,3.69066 -1.06448,1.44626 -2.91263,2.10134 -4.36898,3.15203 5.39882,-1.11616 -5.75073,0.43674 -4.33922,0.11847 1.02107,-0.23024 2.0575,-0.40663 3.09999,-0.50097 0.0921,-0.008 -0.0736,0.18045 -0.14905,0.23395 -0.16622,0.11793 -0.37237,0.16676 -0.55185,0.26335 -0.71866,0.3868 -1.42781,0.79097 -2.14173,1.18644 -1.27889,0.72176 -4.04351,2.20448 -5.04198,3.13635 -1.63042,1.52164 -4.60093,5.58749 -5.57809,7.505 -1.54295,3.02778 -1.59563,4.61073 -2.15166,7.80224 -1.33528,4.22606 -0.88093,2.54821 -1.88379,6.59271 -0.26716,1.07756 -0.57268,2.14679 -0.79019,3.23543 -0.28356,1.41917 -0.69538,2.83575 -0.71196,4.2829 -0.0324,2.82272 0.76289,4.62863 1.60858,7.16526 1.23712,1.34933 2.56652,2.68062 3.47072,4.29391 0.35983,0.64213 0.53932,1.38472 0.96073,1.98819 0.83453,1.195 0.80541,0.9873 1.27469,0.426 -0.62599,-0.41393 -1.25195,-0.82792 -1.87791,-1.24185 -0.21381,-0.0129 -0.84846,0.0166 -0.64143,-0.0388 2.13659,-0.56721 2.60816,-0.0862 5.12938,-0.0443 4.36734,0.0729 5.0005,-0.15913 9.4605,-0.68116 4.62423,-1.69769 3.87129,-1.16065 7.89131,-3.58419 1.38735,-0.83635 2.97518,-1.44671 4.09473,-2.61758 2.18588,-2.28614 3.30307,-5.74391 3.75552,-8.78385 0.17856,-1.19991 0.0593,-2.42552 0.0889,-3.63827 -0.33548,-2.76576 -0.3625,-1.93714 -0.2055,-4.64387 0.0437,-0.75345 0.18608,-1.50255 0.17692,-2.25724 -0.009,-0.72265 -0.17518,-1.43521 -0.23056,-2.15576 -0.0793,-1.03201 0.0475,-2.08904 -0.17328,-3.10028 -0.19343,-0.88617 -0.70081,-1.67322 -1.05115,-2.50985 -1.93829,-8.63656 0.38998,3.01121 -0.59075,-7.60316 -0.13711,-1.48382 -0.47277,-2.95615 -0.9458,-4.36922 -0.35002,-1.04571 -0.8805,-2.03684 -1.50322,-2.94688 -0.36392,-0.53184 -1.34418,-1.95811 -1.41478,-1.31757 -0.13979,1.26863 0.7719,2.43308 1.15785,3.64964 23.61128,-18.9122 4.20276,1.65619 3.04261,2.0327 -2.23335,0.72479 -4.445,-3.86669 -5.2333,-5.7317 -0.1854,-0.43859 -0.26007,-0.92416 -0.48614,-1.34323 -0.19773,-0.36653 -0.51297,-0.65618 -0.76944,-0.98429 -0.21296,-0.30045 -0.32327,-0.71153 -0.63883,-0.90139 -0.13005,-0.0783 -0.46065,0.27223 -0.31852,0.3254 2.21029,0.82755 4.40644,2.01552 6.76546,2.0883 1.12218,0.0346 1.75228,-2.01745 2.85204,-1.79173 0.99744,0.20475 -1.47859,1.4608 -2.405,1.88347 -0.99063,0.45192 -2.1311,0.44803 -3.19665,0.67207 -6.11633,0.47809 -0.38984,0.2836 -4.04358,-0.0567 -0.31367,-0.0292 -0.77543,-0.20715 -0.94323,0.0595 -0.14185,0.22539 0.5041,0.18733 0.76866,0.21787 3.7478,0.43332 2.24601,0.11736 6.35834,-3.20884 -0.47959,-9.55869 1.54281,-4.17979 -3.27966,-8.26062 -0.37277,-0.31542 0.92345,0.32066 1.37135,0.51512 1.28905,0.55962 3.40457,1.73188 4.87864,1.97834 0.80288,0.13426 1.62803,0.0125 2.44203,0.0189 1.77098,0.46821 3.62123,1.27857 5.3863,0.34974 0.40392,-0.21252 1.08655,-1.17336 1.16271,-0.72333 2.16935,12.82042 -2.11987,17.04149 4.94297,5.13369 -0.0625,0.13871 -0.17196,0.26481 -0.18758,0.41621 -0.0285,0.27746 0.0386,0.55653 0.0586,0.83474 0.0338,0.47031 0.27375,3.74505 0.27689,3.94072 0.0668,4.15759 -0.0617,3.67445 -0.72889,8.09475 0.24685,3.52818 -0.36082,7.05358 -0.2435,10.5788 0.0546,1.6409 0.36807,3.2633 0.50717,4.89921 0.28591,3.36162 0.32294,6.74143 0.61106,10.10292 0.15144,1.76682 0.40933,3.5229 0.61402,5.28432 -0.67308,6.37813 -0.69385,12.82571 -1.66214,19.17546 -0.37298,2.44565 -0.93258,4.85934 -1.43582,7.28153 -0.50097,2.41129 -0.74258,4.90101 -1.57671,7.2183 -1.14446,3.17937 -2.88158,6.11306 -4.32239,9.16956 -3.81424,8.62592 -4.29756,9.00963 -6.94776,17.41972 -0.61338,1.94658 -0.98091,3.96592 -1.61303,5.90641 -0.45684,1.40251 -1.12647,2.72703 -1.6486,4.10658 -0.28334,0.74857 -1.72565,5.0024 -2.01922,5.86418 -0.44305,1.01382 -0.61413,2.19725 -1.32919,3.04147 -1.0319,1.21833 -4.69213,3.26913 -6.37576,3.42875 -6.29115,0.59658 -1.77736,-0.74271 -5.65885,-1.11219 -0.17086,-0.016 -0.24639,0.23909 -0.3696,0.35864 0.53675,0.0166 2.14728,0.0486 1.61025,0.0505 -5.52352,0.0154 0.56716,-0.0946 -8.94799,-2.21559 -2.51163,-0.55989 -5.09722,-0.71797 -7.65612,-0.98933 -6.04644,-0.64126 -6.27301,-0.53015 -11.82961,-0.59953 -1.76535,0.0142 -5.29823,-0.0345 -7.18145,0.24316 -0.9026,0.13322 -3.31138,1.48772 -4.10121,0.0677 -4.17716,-7.51041 -3.93587,-6.69585 -0.74895,-10.2921 0.33295,-1.05797 0.30911,-0.75934 -0.6806,0.58691 0.98753,-3.08925 13.12316,0.79018 12.13562,3.87937 l 0,0 c -1.6683,2.12454 -0.96675,1.22946 -2.10604,2.68424 2.58413,-1.58811 1.59845,-0.77626 -2.47044,-7.4654 -0.21555,-0.35446 -1.38557,0.18246 -1.13408,0.51236 0.41852,0.54887 1.36806,0.28416 1.98197,0.59965 0.7563,0.38869 1.29847,1.1367 2.07422,1.48501 1.14603,0.51451 2.40928,0.71243 3.61393,1.06867 1.58309,0.5863 3.11589,1.33228 4.74926,1.75895 4.05467,1.05926 8.53684,1.69055 12.70545,0.71126 1.78631,-0.41959 3.35928,-1.48002 5.00716,-2.28725 0.6864,-0.33624 1.23845,-0.99807 1.9895,-1.13996 1.36151,-0.25708 2.77114,-0.0142 4.1567,-0.0209 0.59934,0.16602 1.24329,0.21675 1.798,0.49795 0.15472,0.0784 0.32294,0.4332 0.16081,0.49482 -0.31274,0.11887 -0.7152,-0.37545 -0.98728,-0.1808 -0.30615,0.21903 -0.26421,0.71655 -0.28676,1.09231 -0.0167,0.27862 -0.10468,0.85587 0.17196,0.81936 0.55396,-0.0731 0.88792,-0.67851 1.33189,-1.01776 1.32855,-2.13391 2.26223,-3.81104 3.93805,-5.73367 0.94045,-1.07908 1.99691,-2.05166 3.02165,-3.05102 1.46334,-1.42714 3.12487,-2.66436 4.44176,-4.22767 6.05932,-7.193 5.02035,-7.22243 8.21878,-16.6386 0.52057,-3.18485 1.01929,-6.37327 1.56171,-9.55443 0.94151,-5.52178 1.75177,-8.5856 2.09488,-14.18137 0.24251,-3.95497 -0.0745,-8.85715 -0.18836,-12.83483 -0.0529,-1.85017 -0.0768,-3.70109 -0.11515,-5.55157 -0.14966,-1.70379 -0.2662,-3.4108 -0.44897,-5.11132 -0.56319,-5.24022 -0.83139,-5.15475 -1.05728,-10.30954 -0.0765,-1.74614 -0.055,-3.49528 -0.0632,-5.2431 -0.008,-1.67372 0.15621,-3.3534 0.0157,-5.0212 -0.1425,-1.68969 -0.57457,-3.34232 -0.86183,-5.01343 -3.24558,-12.00767 0.30722,0.43096 -2.00208,-6.3762 -0.18868,-0.55617 -0.23495,-1.15572 -0.44009,-1.70601 -1.08027,-2.8973 -0.23662,0.073 -1.71514,-2.54165 -0.13454,-0.23789 -0.0749,-0.54152 -0.11231,-0.81228 1.35068,-2.50387 1.87143,-9.33868 4.05207,-7.51156 3.05939,2.56342 0.83061,7.9396 1.20177,11.91365 0.008,0.0875 -0.0299,-0.20625 -0.11142,-0.23901 -0.67214,-0.26976 -1.38481,-0.42483 -2.0766,-0.63918 -0.72151,-0.22354 -1.43205,-0.48521 -2.16328,-0.67439 -0.66577,-0.17225 -1.34815,-0.2723 -2.02222,-0.40844 -1.53558,-0.28085 -4.06839,-0.80516 -5.57969,-0.79968 -0.66213,0.004 -1.29611,0.28196 -1.95387,0.35784 -1.92192,0.22168 -5.09462,-0.57182 -5.96888,-1.97817 -1.23648,-1.98911 -0.5849,-4.64758 -0.87733,-6.97139 1.55625,-1.073 2.99653,-2.33767 4.66879,-3.219 0.79132,-0.41706 1.71695,-0.60795 2.61139,-0.61786 0.38638,-0.004 0.72158,0.31513 1.00489,0.57791 0.0856,0.0793 -0.23944,-0.0103 -0.34871,0.0307 -0.89269,0.33392 1.05536,0.42174 -1.24696,0.0193 -0.37088,0.3137 -0.7286,0.64366 -1.11263,0.94116 -0.50646,0.39229 -2.07055,1.50974 -1.557,1.12674 1.11284,-0.82993 1.96872,-2.3927 3.35493,-2.46765 12.04644,-0.65123 6.36471,-0.16124 7.59838,3.30054 0.13208,0.37059 0.45503,0.64196 0.68252,0.96291 0.25982,0.53286 0.5515,1.05132 0.77946,1.59858 0.19702,0.47299 0.23206,1.01502 0.49298,1.45604 0.1081,0.18265 0.72433,0.44059 0.55415,0.31371 -1.09621,-0.8175 -2.12426,-3.02234 -3.33576,-2.38808 -0.99302,0.5199 -18.79768,21.34329 3.27324,0.7706 4.12053,9.65153 1.15458,-0.1729 0.39119,5.37015 -0.16291,1.18292 0.27422,2.373 0.45617,3.55314 1.27134,8.24721 -0.0906,0.84799 2.70645,8.57504 0.29303,0.80954 0.31741,1.69239 0.47612,2.53857 3.20431,11.27433 -0.88674,-3.73568 1.39298,6.51594 0.28427,1.27847 0.92726,2.47268 1.10636,3.77008 0.14652,1.06134 -0.0683,2.14225 -0.14256,3.21111 -0.24332,3.50427 -0.0228,2.1907 -1.75535,5.61039 -2.07582,4.67074 -1.5462,3.75225 -4.37225,8.74408 -2.11303,3.73242 -4.41121,8.33198 -8.05654,10.92992 -2.74466,1.956 -6.99431,0.87907 -9.53275,3.37033 -7.10141,2.30473 -2.62665,0.7919 -9.10121,3.11055 -1.06391,0.38099 -2.13352,0.74616 -3.19689,1.12876 -1.92332,0.69193 -3.60998,1.54841 -5.83161,1.20152 -1.50717,-0.23541 -2.81925,-1.166 -4.22887,-1.74904 -3.58763,-4.76545 0.92437,1.6056 -1.86636,-3.62377 -0.33945,-0.63603 -0.95717,-1.08757 -1.33564,-1.70126 -0.4171,-0.67642 -0.71787,-1.41889 -1.03724,-2.14659 -1.37481,-3.13283 -0.94926,-2.09284 -1.29776,-5.90104 -0.60967,-5.66805 -0.47341,-2.72999 -0.33313,-8.81739 -0.14139,-1.85634 -0.84458,-3.65295 -0.88753,-5.51422 -0.0313,-1.36115 0.33606,-2.70905 0.66727,-4.02972 0.81931,-3.26678 1.4792,-4.19786 2.94438,-7.09655 1.08348,-2.5218 2.46648,-5.9005 3.78804,-8.26758 0.87776,-1.57211 1.99364,-3.00265 2.8787,-4.57067 0.90973,-1.61181 1.55554,-3.36612 2.49973,-4.95804 0.9402,-1.5852 2.99845,-4.23939 4.29203,-5.93917 0.68202,-0.80113 1.9776,-2.36169 2.68353,-2.99022 0.45492,-0.40505 0.91365,-0.87808 1.49972,-1.04384 1.46822,-0.41525 3.03264,-0.36475 4.52933,-0.66124 0.14773,-0.0292 0.48019,-0.26022 0.33563,-0.30252 -0.46803,-0.1369 -0.97513,-0.0182 -1.46269,-0.0271 -1.17076,1.03501 -2.70606,1.76643 -3.51225,3.10509 -0.58868,0.97745 -1.39612,3.96442 -0.40499,3.39909 2.9709,-1.6945 4.41036,-5.34133 7.22266,-7.28766 0.74261,-0.51398 3.84175,3.11395 5.00231,2.52635 2.51207,1.25459 -2.4164,11.12289 -4.92846,9.86827 z"
           inkscape:connector-curvature="0" />
      </g>
      <g
         transform="matrix(0.61559669,0,0,0.61559669,-178.0127,121.77556)"
         id="g6264"
         style="fill:#ffffff">
        <path
           style="fill:#ffffff;fill-opacity:1"
           id="path6234"
           d="m 313.07086,40.795249 c -3.80661,6.26888 -5.26028,13.478107 -6.64443,20.57931 -0.40802,2.093633 -0.56983,4.235399 -1.06946,6.309091 -2.83446,11.764475 -2.00949,1.778613 -2.21399,13.926197 -2.3668,4.244596 -5.37848,8.189209 -7.10039,12.733784 -3.31237,8.742079 -3.90317,17.324749 -3.23379,26.468019 0.21079,2.8801 1.14025,5.66875 1.47217,8.53742 0.83185,7.19063 0.34188,6.79942 -1.03328,13.88153 -0.9079,6.80385 -1.63075,13.76915 -3.57028,20.38398 -1.02886,3.50887 -2.61047,6.84323 -3.58331,10.36802 -3.00201,10.8759 -2.66687,12.49953 -3.6069,23.35374 0.012,4.57924 0.14241,12.20729 -0.20802,17.0464 -0.19244,2.65755 -0.67372,5.28859 -0.875,7.94548 -0.19012,2.50857 0.15776,5.06732 -0.29851,7.54134 -3.98414,21.59966 -3.363,1.59691 -3.0337,21.43314 0.49799,2.46423 1.00751,4.92611 1.49373,7.39267 2.5355,12.86253 4.08213,13.97842 -25.7154,0.71898 -2.06496,-0.91888 -1.68984,-6.78276 0.57021,-6.75657 37.1323,0.43031 35.02184,1.56016 26.69797,8.02464 0.3645,3.50009 1.85982,-0.24185 -0.50083,7.71212 -0.22533,0.75916 -1.72949,2.54875 -1.58424,1.77032 1.57412,-8.43384 2.56725,-1.60661 1.78447,-5.75432 0.30502,7.17344 -27.87483,8.3718 -28.17986,1.19836 l 0,0 c -0.24101,-5.68944 -0.57943,-3.08157 1.99853,-10.12305 0.10914,-0.29821 -0.13159,0.62268 -0.16227,0.93877 -0.14476,1.48998 0.21559,3.09589 -0.36378,4.47624 -0.5973,1.4232 -0.7586,-5.93287 -0.3328,-4.61838 0.18563,-11.84524 -0.67661,3.1657 28.15188,4.04814 1.71165,0.0524 2.40358,-4.58292 0.76489,-5.08023 -8.78358,-2.66561 -18.19527,-2.93201 -27.37427,-2.99503 -2.04556,-0.014 10.83358,9.92197 5.82244,-1.9391 0.47829,-3.34947 1.32909,-6.66661 1.43487,-10.04841 0.11648,-3.72507 -0.64414,-7.42931 -0.77186,-11.15403 -0.26735,-7.79374 0.12689,-9.05586 1.03209,-16.63827 0.34952,-2.92741 0.37109,-5.91523 1.06804,-8.77986 0.7156,-2.9417 2.09413,-5.68134 3.14119,-8.52201 2.64614,-10.88266 3.45028,-11.15445 3.05409,-22.94943 -0.14404,-4.28858 -1.4676,-8.51498 -1.33254,-12.80384 0.0674,-2.12923 1.52618,-4.00107 1.92776,-6.09315 0.26854,-1.39924 0.95672,-13.56873 1.01418,-14.51519 2.1581,-10.44546 -0.3809,-0.42979 3.93238,-11.18969 1.11509,-2.78146 2.03691,-5.63942 2.90576,-8.5073 2.53048,-8.35159 5.32432,-18.21326 5.46328,-26.974207 0.0689,-4.365889 -1.10324,-8.662899 -1.65487,-12.994344 0.35229,-2.628857 0.77245,-5.249519 1.05695,-7.886578 0.27357,-2.535363 0.15057,-5.118208 0.61665,-7.625332 1.48228,-7.973769 2.56545,-6.625883 4.39007,-14.077955 1.68626,-6.887415 1.15096,-6.970309 0.63222,-13.823828 1.28873,-6.113974 25.30668,-1.05156 24.01796,5.062413 z"
           inkscape:connector-curvature="0" />
        <path
           style="fill:#ffffff;fill-opacity:1"
           id="path6236"
           d="m 374.06402,93.108058 c -5.25473,8.522902 -3.18794,3.644754 -5.38133,12.828392 -0.50653,2.12077 -1.21913,4.19647 -1.58962,6.34517 -0.29402,1.70478 -0.0449,3.48083 -0.39695,5.17461 -2.94284,14.16648 -1.15852,-2.60554 -2.25091,10.68458 -1.80476,4.39984 -0.21191,9.69666 -2.01443,14.08277 -1.7909,4.35806 -5.51953,7.79288 -7.06032,12.24554 -1.7551,5.07209 -1.94918,10.56002 -2.6716,15.87835 -1.80828,13.31118 -1.44161,13.36911 -1.46902,25.71043 0.95537,8.67365 0.55409,17.4098 -0.64819,26.03961 -0.47252,3.39185 -1.43898,6.71062 -1.78326,10.11789 -0.36997,3.66132 -0.12884,7.36115 -0.35424,11.03421 -0.28638,4.66742 -0.78713,9.3192 -1.1807,13.97881 1.1392,14.84409 -0.0105,9.42111 3.30277,21.92093 0.55612,2.09824 1.35127,4.13759 1.76342,6.2688 1.06002,5.48006 0.27334,12.06074 0.0112,17.59685 -0.61201,6.9059 -1.4315,5.4042 1.20639,11.15182 0.32713,0.71279 1.12512,1.20938 1.27104,1.97995 1.04827,5.53359 -0.98812,0.0845 -0.84219,3.23635 0.0584,1.26719 0.39139,2.50673 0.58713,3.7601 0.36247,0.92797 0.89845,1.80573 1.08745,2.78388 0.1782,0.9226 -0.0142,1.87934 -0.007,2.81896 0.051,5.2964 0.33453,2.40183 -0.56294,7.40567 -3.63042,6.63782 -29.70626,-7.624 -26.07583,-14.26183 l 0,0 c -0.20196,1.94808 -0.65358,4.08944 0.007,6.03798 0.0727,0.2143 0.58083,0.29103 0.6735,0.0845 0.25386,-0.56584 0.0811,-1.23774 0.12165,-1.85662 -1.16984,-6.00286 0.0404,0.0118 -1.68581,-7.76458 -0.15064,-0.67878 -0.61754,-1.38265 -0.40795,-2.04559 0.26908,-0.85095 1.34977,-1.24488 1.70701,-2.06273 1.83787,-4.20754 1.2586,-6.65958 1.2443,-11.31817 -0.71762,-5.62087 -1.70858,-12.01905 -0.26495,-17.65351 0.5305,-2.07046 1.64992,-3.95599 2.21525,-6.01723 2.597,-9.46934 2.0507,-11.23901 2.65963,-21.88673 -3.31192,-22.44642 -1.47338,-5.68235 -2.24246,-25.65914 -0.1406,-3.65108 -1.2571,-16.11779 -0.95605,-20.24316 0.31873,-4.36849 2.62403,-13.43938 3.63102,-17.72251 1.31554,-3.48826 2.86404,-6.89735 3.94661,-10.46479 3.01402,-9.93196 5.22065,-19.76084 4.48356,-30.27607 -0.35956,-5.12899 -2.69295,-9.97619 -3.16899,-15.09568 -0.36323,-3.90566 3.1212,-7.55322 2.47024,-11.50531 0.10017,-3.33656 0.14053,-10.47409 0.84235,-14.03332 1.1798,-5.98274 4.75502,-11.32691 4.96738,-17.543961 0.0607,-1.767211 -0.56683,-3.490765 -0.85028,-5.236149 0.88609,-6.53328 26.55128,-3.052455 25.66519,3.480827 z"
           inkscape:connector-curvature="0" />
        <path
           style="fill:#ffffff;fill-opacity:1"
           id="path6238"
           d="m 215.07698,176.2387 c 1.90582,0.50022 3.78054,1.139 5.71745,1.50064 2.43849,0.45528 4.92033,0.63611 7.38165,0.94501 3.32995,0.41791 6.66638,0.78519 9.99211,1.23541 4.34936,0.58879 8.69668,1.19683 13.03199,1.88147 5.62498,0.88831 11.18968,2.18476 16.84689,2.83699 6.35987,0.73325 12.77395,0.87629 19.16084,1.31443 6.44293,-0.0216 12.89545,-0.41642 19.32878,-0.0645 28.59987,1.56428 22.86872,4.27634 51.14237,2.52222 15.70666,-0.97446 18.83881,-2.85161 32.74356,-6.02155 3.42599,-0.78104 6.88585,-1.40498 10.32887,-2.10748 4.8028,-2.94099 10.37619,-0.12964 15.3349,-1.46322 1.46498,-0.39401 2.55256,-1.68485 3.60637,-2.77622 0.32884,-0.34068 0.39769,-1.83897 0.39252,-1.36542 -0.16787,15.28111 -1.74109,59.62996 0.24847,0.32433 0.45073,-0.0769 0.90145,-0.15383 1.35217,-0.23073 7.14833,0.56259 4.93832,28.64434 -2.21016,28.08175 l 0,0 c -0.46623,0.27445 -0.93246,0.54887 -1.39869,0.82332 -1.59862,-51.30153 -0.72332,-26.18833 -0.27739,0.0427 0.009,0.53092 0.12967,-1.14014 -0.16037,-1.58489 -0.84534,-1.29612 -1.65248,-2.94076 -3.11709,-3.44015 -4.78715,-1.63229 -10.47411,1.8844 -15.11632,-1.31379 -3.33521,-0.66727 -6.70675,-1.17325 -10.00555,-2.00178 -13.99975,-3.51624 -15.49484,-5.90488 -31.74137,-6.71149 -8.37556,-0.41584 -16.77981,0.21085 -25.14488,0.80139 -46.75783,3.30096 -7.54894,3.15609 -45.7814,2.52461 -6.45424,0.41624 -12.92144,0.66455 -19.36265,1.24877 -2.97474,0.26981 -25.9848,3.10809 -30.55408,3.86095 -3.44218,0.56716 -6.81427,1.51294 -10.25414,2.09394 -2.49215,0.42091 -5.0184,0.60625 -7.5276,0.90937 -1.97156,0.33508 -3.94311,0.67014 -5.91466,1.00521 -6.33119,-0.49828 -4.37378,-25.36954 1.95741,-24.87126 z"
           inkscape:connector-curvature="0" />
        <path
           style="fill:#ffffff;fill-opacity:1"
           id="path6240"
           d="m 232.64668,118.89127 c 2.064,0.39155 4.09222,1.10852 6.19199,1.17464 2.13916,0.0673 4.23305,-0.76893 6.37323,-0.77895 1.99744,-0.009 3.9563,0.5809 5.94883,0.72131 7.1366,0.50289 6.47554,-0.42626 13.82388,1.07138 4.4846,0.91398 8.8877,2.19001 13.33156,3.285 15.76262,0.63554 11.87144,1.46563 26.15426,-1.37066 14.09765,-2.79953 2.56703,-1.35413 14.52335,-2.95987 2.11001,-0.2834 4.22077,-0.89507 6.34412,-0.73951 2.76351,0.20248 5.41054,1.19928 8.11578,1.7989 8.78605,0.31538 17.13951,3.57459 25.83778,4.37962 5.1572,0.47732 10.38354,0.46133 15.53767,-0.0485 4.13007,-0.40855 8.06844,-1.97481 12.1564,-2.69098 14.0933,-2.46901 3.03992,1.17713 14.92104,-3.4356 1.55171,-0.007 5.89459,0.21227 7.63516,-0.57388 2.42882,-1.09701 1.31748,-1.36071 2.26335,-2.75224 0.0614,-0.0898 -0.0547,0.24978 0.024,0.32499 0.28569,0.27416 0.66233,0.43418 0.9935,0.65127 2.21249,-0.0506 4.22324,2.02841 6.50255,2.14231 0.31949,0.016 1.14977,-0.1063 0.90676,-0.31432 -0.62278,-0.53307 -3.3543,-0.34619 -0.86024,-1.12417 0.47979,0.10442 0.9595,0.20882 1.43914,0.31324 7.02309,-1.05631 11.17263,26.53263 4.14969,27.58894 l 0,0 c 0.0102,-0.20256 0.0187,-0.40511 0.0285,-0.60767 -3.94497,0.56585 -4.64431,0.79898 -9.31094,0.28267 -0.41423,-0.0457 -5.2548,-1.20133 -6.02283,-0.95894 -0.40488,0.1278 0.63349,0.56546 0.95028,0.84821 -0.3684,0.015 -0.87164,0.3859 -1.10198,0.0979 -0.73118,-0.91463 0.0397,-0.92676 -1.91922,-1.62019 -1.00527,-0.35587 -2.09608,-0.39383 -3.1442,-0.59074 -1.42115,-0.57488 -2.84231,-1.14977 -4.26347,-1.72464 -2.07248,-0.31796 -4.18886,-0.42363 -6.21745,-0.9539 -11.63512,-3.04135 -5.67325,-3.81995 -19.93921,-4.62047 -5.17818,-0.29057 -10.39793,-0.25006 -15.5564,0.2868 -8.90067,0.92632 -17.47264,4.19044 -26.51383,4.21093 -6.45484,0.97533 -8.51294,1.60845 -14.66087,1.49391 -2.06785,-0.0386 -4.18356,0.0489 -6.1872,-0.46395 -2.7194,-0.69606 -5.0978,-2.44106 -7.82108,-3.12175 -10.05524,-2.51332 -15.30719,-1.60694 -25.93644,-1.39658 -4.64214,1.42425 -9.19888,3.16416 -13.92633,4.27274 -0.6568,0.15404 -12.89978,1.25539 -14.00154,1.18611 -2.00867,-0.12631 -3.89692,-1.15258 -5.90727,-1.24937 -4.56778,-0.21993 -8.48146,1.24388 -12.78794,2.43415 -6.22857,-0.49021 -4.30288,-24.95831 1.92569,-24.46811 z"
           inkscape:connector-curvature="0" />
        <path
           style="fill:#ffffff;fill-opacity:1"
           id="path6246"
           d="m 517.45461,48.236395 c -0.92608,2.237979 -4.99166,11.616842 -5.42574,14.319776 -0.3066,1.909148 0.41836,3.861756 0.31176,5.792417 -0.11656,2.112471 -0.78024,4.16485 -0.97763,6.271296 -1.14519,12.21864 1.16924,-0.504774 -1.33538,11.45421 -0.14481,2.33705 0.0937,4.72997 -0.43455,7.01113 -5.60845,24.220016 -5.43968,7.789866 -8.16536,35.845906 -1.31546,13.54041 -0.25792,21.81778 0.53042,35.02498 0.25678,4.30165 0.48503,8.60494 0.72751,12.90742 -0.38331,10.64563 0.61986,22.17339 -1.43607,32.69199 -2.42583,12.41019 -4.97667,12.48665 -4.97944,24.84007 0,2.75951 0.92946,5.44019 1.39426,8.16028 1.93773,5.22837 1.9889,4.04037 2.10882,9.66243 0.0278,1.29218 -0.3272,2.5886 -0.18345,3.87306 0.11019,0.98484 0.60151,1.88882 0.93245,2.8229 0.22008,0.62111 0.69747,1.18253 0.71988,1.84109 0.051,1.5035 -0.33635,2.98988 -0.50451,4.48482 -1.32071,-8.63532 -1.45015,6.44373 -1.07313,4.8361 0.60503,-2.58039 1.02137,-5.20471 1.37336,-7.83161 0.0285,-0.2121 -0.29529,-0.80153 -0.24443,-0.59367 0.72677,2.96841 0.80714,0.99984 0.0835,4.14002 -1.22003,3.41939 -2.43998,6.83878 -3.66002,10.25816 -4.69045,5.48398 -26.23351,-12.94184 -21.54307,-18.42582 l 0,0 c -0.99253,3.05114 -1.98506,6.10229 -2.97751,9.15343 0.0712,0.25321 0.88255,0.46089 0.75439,0.23118 -0.36749,-0.65886 -1.58176,-0.87674 -1.56903,-1.63107 0.28758,-17.11087 1.86702,-8.85969 1.91458,-5.75391 0.23911,0.35702 0.48062,1.42971 0.71725,1.07107 0.75799,-1.14868 0.58174,-5.28988 0.70684,-6.42242 0.74203,-6.71712 0.277,0.28631 2.05345,-6.64446 0.6168,-2.4063 0.86969,-4.89144 1.30453,-7.33717 0.94691,-2.82 5.98336,-17.56583 6.20606,-19.4587 0.5192,-4.41269 -0.80496,-8.88699 -0.50346,-13.31988 0.22706,-3.33773 1.68387,-6.49678 2.07735,-9.819 3.49792,-29.5324 -3.28449,7.32866 2.54044,-21.75278 0.91785,-4.27595 1.75428,-8.57021 2.75363,-12.82788 1.20587,-5.13778 3.16465,-10.12292 3.86099,-15.35419 1.32505,-9.95501 0.90721,-29.06705 -1.11755,-38.78934 -1.13037,-5.42727 -4.30925,-10.273326 -5.56118,-15.673836 -0.63179,-2.72533 -0.012,-5.59517 -0.018,-8.39275 -0.0584,-2.59021 -0.36474,-5.18676 -0.17446,-7.77063 0.13498,-1.83404 0.81642,-3.587506 1.14377,-5.397145 0.35342,-1.953696 0.63417,-3.92035 0.89762,-5.888203 0.34428,-2.571185 0.41604,-5.183541 0.92527,-7.727197 0.43693,-2.18239 1.57,-4.19951 1.90297,-6.400147 0.29978,-1.981076 -0.0164,-4.00722 -0.0254,-6.010831 0.64376,-6.101162 24.61139,-3.572259 23.96763,2.528904 z"
           inkscape:connector-curvature="0" />
        <path
           style="fill:#ffffff;fill-opacity:1"
           id="path6248"
           d="m 485.07473,310.54806 c -0.1669,1.39962 -0.42128,2.79155 -0.50061,4.19886 -0.0555,0.98909 -0.38076,2.10236 0.0967,2.9704 0.27731,0.50428 2.27189,0.36794 1.70064,0.29765 -34.0095,-4.18525 -23.7366,5.06574 -27.57595,-5.8221 0.0209,-0.048 0.092,-0.18886 0.0644,-0.14404 -5.69879,9.28419 3.68975,0.0298 27.49969,-0.31985 0.36682,-0.005 -0.30788,0.68543 -0.32376,1.05197 -0.033,0.75267 0.15364,1.49999 0.18099,2.25286 0.0277,0.76199 -0.0105,1.52495 -0.0157,2.28741 0.68429,2.85526 0.6971,1.78895 0.40376,4.48435 -0.0599,0.55083 -0.33177,1.10226 -0.22802,1.64656 0.0761,0.39915 0.48533,0.65184 0.72796,0.97775 -0.0457,7.33654 -28.86669,7.15557 -28.82063,-0.18096 l 0,0 c 0.26765,-0.82881 0.34076,-1.71355 0.62279,-2.53756 1.1595,-3.38765 0.93785,-0.35192 0.7968,-4.12524 -2.68232,-6.72569 0.54832,2.47449 -0.47432,-4.57596 -0.13213,-0.91113 -2.01653,-2.35838 -1.11171,-2.52836 28.6072,-5.37381 29.70094,-11.38004 28.03843,1.38943 0.14127,0.97065 0.39896,1.93138 0.42375,2.91192 0.32203,12.73462 -6.18681,6.02523 -27.1414,4.03074 -0.84271,-0.0803 -0.34398,-1.693 -0.21828,-2.53011 0.1985,-1.32151 0.99358,-2.50916 1.17388,-3.83326 0.21724,-1.59565 0.007,-3.22076 0.007,-4.83114 0.74548,-6.28126 25.42068,-3.35257 24.67513,2.92868 z"
           inkscape:connector-curvature="0" />
      </g>
    </g>
  </g>
</svg>
